999
Generated by Autodesk CAM - http://cam.autodesk.com
0
SECTION
2
HEADER
9
$ACADVER
1
AC1006
9
$ANGBASE
50
0
9
$ANGDIR
70
0
0
ENDSEC
0
SECTION
2
BLOCKS
0
ENDSEC
9
$EXTMIN
10
-0.8
20
0
30
-295.114
9
$EXTMAX
10
75.5
20
0
30
10
0
SECTION
2
ENTITIES
0
LINE
8
1
62
3
10
75.5
20
0
30
10
11
75.5
21
0
31
10
0
LINE
8
1
62
3
10
75.5
20
0
30
10
11
75.5
21
0
31
-2.086
0
LINE
8
1
62
3
10
75.5
20
0
30
-2.086
11
65.5
21
0
31
-2.086
0
LINE
8
1
62
2
10
65.5
20
0
30
-2.086
11
61.914
21
0
31
-2.086
0
LINE
8
1
62
2
10
61.914
20
0
30
-2.086
11
60.5
21
0
31
-3.5
0
LINE
8
1
62
1
10
60.5
20
0
30
-3.5
11
-0.8
21
0
31
-3.5
0
LINE
8
1
62
2
10
-0.8
20
0
30
-3.5
11
0.614
21
0
31
-2.086
0
LINE
8
1
62
3
10
0.614
20
0
30
-2.086
11
75.5
21
0
31
-2.086
0
LINE
8
1
62
3
10
75.5
20
0
30
-2.086
11
75.5
21
0
31
10
0
LINE
8
1
62
3
10
70.5
20
0
30
10
11
70.5
21
0
31
10
0
LINE
8
1
62
3
10
70.5
20
0
30
10
11
70.5
21
0
31
-2.9
0
LINE
8
1
62
3
10
70.5
20
0
30
-2.9
11
59.3
21
0
31
-2.9
0
LINE
8
1
62
1
10
59.3
20
0
30
-2.9
11
59.3
21
0
31
-222.699
0
LINE
8
1
62
1
10
59.3
20
0
30
-222.699
11
60.5
21
0
31
-223.873
0
LINE
8
1
62
1
10
60.5
20
0
30
-223.873
11
61.5
21
0
31
-222.873
0
LINE
8
1
62
3
10
61.5
20
0
30
-222.873
11
61.5
21
0
31
-2.9
0
LINE
8
1
62
3
10
61.5
20
0
30
-2.9
11
58.1
21
0
31
-2.9
0
LINE
8
1
62
1
10
58.1
20
0
30
-2.9
11
58.1
21
0
31
-221.526
0
LINE
8
1
62
1
10
58.1
20
0
30
-221.526
11
59.3
21
0
31
-222.699
0
LINE
8
1
62
1
10
59.3
20
0
30
-222.699
11
60.3
21
0
31
-221.699
0
LINE
8
1
62
3
10
60.3
20
0
30
-221.699
11
60.3
21
0
31
-2.9
0
LINE
8
1
62
3
10
60.3
20
0
30
-2.9
11
56.9
21
0
31
-2.9
0
LINE
8
1
62
1
10
56.9
20
0
30
-2.9
11
56.9
21
0
31
-220.352
0
LINE
8
1
62
1
10
56.9
20
0
30
-220.352
11
58.1
21
0
31
-221.526
0
LINE
8
1
62
1
10
58.1
20
0
30
-221.526
11
59.1
21
0
31
-220.526
0
LINE
8
1
62
3
10
59.1
20
0
30
-220.526
11
59.1
21
0
31
-2.9
0
LINE
8
1
62
3
10
59.1
20
0
30
-2.9
11
55.7
21
0
31
-2.9
0
LINE
8
1
62
1
10
55.7
20
0
30
-2.9
11
55.7
21
0
31
-219.178
0
LINE
8
1
62
1
10
55.7
20
0
30
-219.178
11
56.9
21
0
31
-220.352
0
LINE
8
1
62
1
10
56.9
20
0
30
-220.352
11
57.9
21
0
31
-219.352
0
LINE
8
1
62
3
10
57.9
20
0
30
-219.352
11
57.9
21
0
31
-2.9
0
LINE
8
1
62
3
10
57.9
20
0
30
-2.9
11
54.5
21
0
31
-2.9
0
LINE
8
1
62
1
10
54.5
20
0
30
-2.9
11
54.5
21
0
31
-218.005
0
LINE
8
1
62
1
10
54.5
20
0
30
-218.005
11
55.7
21
0
31
-219.178
0
LINE
8
1
62
1
10
55.7
20
0
30
-219.178
11
56.7
21
0
31
-218.178
0
LINE
8
1
62
3
10
56.7
20
0
30
-218.178
11
56.7
21
0
31
-2.9
0
LINE
8
1
62
3
10
56.7
20
0
30
-2.9
11
53.3
21
0
31
-2.9
0
LINE
8
1
62
1
10
53.3
20
0
30
-2.9
11
53.3
21
0
31
-216.831
0
LINE
8
1
62
1
10
53.3
20
0
30
-216.831
11
54.5
21
0
31
-218.005
0
LINE
8
1
62
1
10
54.5
20
0
30
-218.005
11
55.5
21
0
31
-217.005
0
LINE
8
1
62
3
10
55.5
20
0
30
-217.005
11
55.5
21
0
31
-2.9
0
LINE
8
1
62
3
10
55.5
20
0
30
-2.9
11
52.1
21
0
31
-2.9
0
LINE
8
1
62
1
10
52.1
20
0
30
-2.9
11
52.1
21
0
31
-215.658
0
LINE
8
1
62
1
10
52.1
20
0
30
-215.658
11
53.3
21
0
31
-216.831
0
LINE
8
1
62
1
10
53.3
20
0
30
-216.831
11
54.3
21
0
31
-215.831
0
LINE
8
1
62
3
10
54.3
20
0
30
-215.831
11
54.3
21
0
31
-2.9
0
LINE
8
1
62
3
10
54.3
20
0
30
-2.9
11
50.9
21
0
31
-2.9
0
LINE
8
1
62
1
10
50.9
20
0
30
-2.9
11
50.9
21
0
31
-214.484
0
LINE
8
1
62
1
10
50.9
20
0
30
-214.484
11
52.1
21
0
31
-215.658
0
LINE
8
1
62
1
10
52.1
20
0
30
-215.658
11
53.1
21
0
31
-214.658
0
LINE
8
1
62
3
10
53.1
20
0
30
-214.658
11
53.1
21
0
31
-2.9
0
LINE
8
1
62
3
10
53.1
20
0
30
-2.9
11
49.7
21
0
31
-2.9
0
LINE
8
1
62
1
10
49.7
20
0
30
-2.9
11
49.7
21
0
31
-213.31
0
LINE
8
1
62
1
10
49.7
20
0
30
-213.31
11
50.9
21
0
31
-214.484
0
LINE
8
1
62
1
10
50.9
20
0
30
-214.484
11
51.9
21
0
31
-213.484
0
LINE
8
1
62
3
10
51.9
20
0
30
-213.484
11
51.9
21
0
31
-2.9
0
LINE
8
1
62
3
10
51.9
20
0
30
-2.9
11
48.5
21
0
31
-2.9
0
LINE
8
1
62
1
10
48.5
20
0
30
-2.9
11
48.5
21
0
31
-212.137
0
LINE
8
1
62
1
10
48.5
20
0
30
-212.137
11
49.7
21
0
31
-213.31
0
LINE
8
1
62
1
10
49.7
20
0
30
-213.31
11
50.7
21
0
31
-212.31
0
LINE
8
1
62
3
10
50.7
20
0
30
-212.31
11
50.7
21
0
31
-2.9
0
LINE
8
1
62
3
10
50.7
20
0
30
-2.9
11
47.3
21
0
31
-2.9
0
LINE
8
1
62
1
10
47.3
20
0
30
-2.9
11
47.3
21
0
31
-210.963
0
LINE
8
1
62
1
10
47.3
20
0
30
-210.963
11
48.5
21
0
31
-212.137
0
LINE
8
1
62
1
10
48.5
20
0
30
-212.137
11
49.5
21
0
31
-211.137
0
LINE
8
1
62
3
10
49.5
20
0
30
-211.137
11
49.5
21
0
31
-2.9
0
LINE
8
1
62
3
10
49.5
20
0
30
-2.9
11
46.1
21
0
31
-2.9
0
LINE
8
1
62
1
10
46.1
20
0
30
-2.9
11
46.1
21
0
31
-209.789
0
LINE
8
1
62
1
10
46.1
20
0
30
-209.789
11
47.3
21
0
31
-210.963
0
LINE
8
1
62
1
10
47.3
20
0
30
-210.963
11
48.3
21
0
31
-209.963
0
LINE
8
1
62
3
10
48.3
20
0
30
-209.963
11
48.3
21
0
31
-2.9
0
LINE
8
1
62
3
10
48.3
20
0
30
-2.9
11
44.9
21
0
31
-2.9
0
LINE
8
1
62
1
10
44.9
20
0
30
-2.9
11
44.9
21
0
31
-208.616
0
LINE
8
1
62
1
10
44.9
20
0
30
-208.616
11
46.1
21
0
31
-209.789
0
LINE
8
1
62
1
10
46.1
20
0
30
-209.789
11
47.1
21
0
31
-208.789
0
LINE
8
1
62
3
10
47.1
20
0
30
-208.789
11
47.1
21
0
31
-2.9
0
LINE
8
1
62
3
10
47.1
20
0
30
-2.9
11
43.7
21
0
31
-2.9
0
LINE
8
1
62
1
10
43.7
20
0
30
-2.9
11
43.7
21
0
31
-207.442
0
LINE
8
1
62
1
10
43.7
20
0
30
-207.442
11
44.9
21
0
31
-208.616
0
LINE
8
1
62
1
10
44.9
20
0
30
-208.616
11
45.9
21
0
31
-207.616
0
LINE
8
1
62
3
10
45.9
20
0
30
-207.616
11
45.9
21
0
31
-2.9
0
LINE
8
1
62
3
10
45.9
20
0
30
-2.9
11
42.5
21
0
31
-2.9
0
LINE
8
1
62
1
10
42.5
20
0
30
-2.9
11
42.5
21
0
31
-206.269
0
LINE
8
1
62
1
10
42.5
20
0
30
-206.269
11
43.7
21
0
31
-207.442
0
LINE
8
1
62
1
10
43.7
20
0
30
-207.442
11
44.7
21
0
31
-206.442
0
LINE
8
1
62
3
10
44.7
20
0
30
-206.442
11
44.7
21
0
31
-2.9
0
LINE
8
1
62
3
10
44.7
20
0
30
-2.9
11
41.3
21
0
31
-2.9
0
LINE
8
1
62
1
10
41.3
20
0
30
-2.9
11
41.3
21
0
31
-205.095
0
LINE
8
1
62
1
10
41.3
20
0
30
-205.095
11
42.5
21
0
31
-206.269
0
LINE
8
1
62
1
10
42.5
20
0
30
-206.269
11
43.5
21
0
31
-205.269
0
LINE
8
1
62
3
10
43.5
20
0
30
-205.269
11
43.5
21
0
31
-2.9
0
LINE
8
1
62
3
10
43.5
20
0
30
-2.9
11
40.1
21
0
31
-2.9
0
LINE
8
1
62
1
10
40.1
20
0
30
-2.9
11
40.1
21
0
31
-203.921
0
LINE
8
1
62
1
10
40.1
20
0
30
-203.921
11
41.3
21
0
31
-205.095
0
LINE
8
1
62
1
10
41.3
20
0
30
-205.095
11
42.3
21
0
31
-204.095
0
LINE
8
1
62
3
10
42.3
20
0
30
-204.095
11
42.3
21
0
31
-2.9
0
LINE
8
1
62
3
10
42.3
20
0
30
-2.9
11
38.9
21
0
31
-2.9
0
LINE
8
1
62
1
10
38.9
20
0
30
-2.9
11
38.9
21
0
31
-162.748
0
LINE
8
1
62
1
10
38.9
20
0
30
-162.748
11
40.1
21
0
31
-163.921
0
LINE
8
1
62
1
10
40.1
20
0
30
-163.921
11
41.1
21
0
31
-162.921
0
LINE
8
1
62
3
10
41.1
20
0
30
-162.921
11
41.1
21
0
31
-2.9
0
LINE
8
1
62
3
10
41.1
20
0
30
-2.9
11
37.7
21
0
31
-2.9
0
LINE
8
1
62
1
10
37.7
20
0
30
-2.9
11
37.7
21
0
31
-161.574
0
LINE
8
1
62
1
10
37.7
20
0
30
-161.574
11
38.9
21
0
31
-162.748
0
LINE
8
1
62
1
10
38.9
20
0
30
-162.748
11
39.9
21
0
31
-161.748
0
LINE
8
1
62
3
10
39.9
20
0
30
-161.748
11
39.9
21
0
31
-2.9
0
LINE
8
1
62
3
10
39.9
20
0
30
-2.9
11
36.5
21
0
31
-2.9
0
LINE
8
1
62
1
10
36.5
20
0
30
-2.9
11
36.5
21
0
31
-160.4
0
LINE
8
1
62
1
10
36.5
20
0
30
-160.4
11
37.7
21
0
31
-161.574
0
LINE
8
1
62
1
10
37.7
20
0
30
-161.574
11
38.7
21
0
31
-160.574
0
LINE
8
1
62
3
10
38.7
20
0
30
-160.574
11
38.7
21
0
31
-2.9
0
LINE
8
1
62
3
10
38.7
20
0
30
-2.9
11
35.3
21
0
31
-2.9
0
LINE
8
1
62
1
10
35.3
20
0
30
-2.9
11
35.3
21
0
31
-159.227
0
LINE
8
1
62
1
10
35.3
20
0
30
-159.227
11
36.5
21
0
31
-160.4
0
LINE
8
1
62
1
10
36.5
20
0
30
-160.4
11
37.5
21
0
31
-159.4
0
LINE
8
1
62
3
10
37.5
20
0
30
-159.4
11
37.5
21
0
31
-2.9
0
LINE
8
1
62
3
10
37.5
20
0
30
-2.9
11
34.1
21
0
31
-2.9
0
LINE
8
1
62
1
10
34.1
20
0
30
-2.9
11
34.1
21
0
31
-158.053
0
LINE
8
1
62
1
10
34.1
20
0
30
-158.053
11
35.3
21
0
31
-159.227
0
LINE
8
1
62
1
10
35.3
20
0
30
-159.227
11
36.3
21
0
31
-158.227
0
LINE
8
1
62
3
10
36.3
20
0
30
-158.227
11
36.3
21
0
31
-2.9
0
LINE
8
1
62
3
10
36.3
20
0
30
-2.9
11
32.9
21
0
31
-2.9
0
LINE
8
1
62
1
10
32.9
20
0
30
-2.9
11
32.9
21
0
31
-156.88
0
LINE
8
1
62
1
10
32.9
20
0
30
-156.88
11
34.1
21
0
31
-158.053
0
LINE
8
1
62
1
10
34.1
20
0
30
-158.053
11
35.1
21
0
31
-157.053
0
LINE
8
1
62
3
10
35.1
20
0
30
-157.053
11
35.1
21
0
31
-2.9
0
LINE
8
1
62
3
10
35.1
20
0
30
-2.9
11
31.7
21
0
31
-2.9
0
LINE
8
1
62
1
10
31.7
20
0
30
-2.9
11
31.7
21
0
31
-155.706
0
LINE
8
1
62
1
10
31.7
20
0
30
-155.706
11
32.9
21
0
31
-156.88
0
LINE
8
1
62
1
10
32.9
20
0
30
-156.88
11
33.9
21
0
31
-155.88
0
LINE
8
1
62
3
10
33.9
20
0
30
-155.88
11
33.9
21
0
31
-2.9
0
LINE
8
1
62
3
10
33.9
20
0
30
-2.9
11
30.5
21
0
31
-2.9
0
LINE
8
1
62
1
10
30.5
20
0
30
-2.9
11
30.5
21
0
31
-86.416
0
LINE
8
1
62
1
10
30.5
20
0
30
-86.416
11
30.97
21
0
31
-87.873
0
LINE
8
1
62
1
10
30.97
20
0
30
-87.873
11
30.97
21
0
31
-154.992
0
LINE
8
1
62
1
10
30.97
20
0
30
-154.992
11
31.7
21
0
31
-155.706
0
LINE
8
1
62
1
10
31.7
20
0
30
-155.706
11
32.7
21
0
31
-154.706
0
LINE
8
1
62
3
10
32.7
20
0
30
-154.706
11
32.7
21
0
31
-2.9
0
LINE
8
1
62
3
10
32.7
20
0
30
-2.9
11
29.3
21
0
31
-2.9
0
LINE
8
1
62
1
10
29.3
20
0
30
-2.9
11
29.3
21
0
31
-82.694
0
LINE
8
1
62
1
10
29.3
20
0
30
-82.694
11
30.5
21
0
31
-86.416
0
LINE
8
1
62
1
10
30.5
20
0
30
-86.416
11
31.5
21
0
31
-85.416
0
LINE
8
1
62
3
10
31.5
20
0
30
-85.416
11
31.5
21
0
31
-2.9
0
LINE
8
1
62
3
10
31.5
20
0
30
-2.9
11
28.1
21
0
31
-2.9
0
LINE
8
1
62
1
10
28.1
20
0
30
-2.9
11
28.1
21
0
31
-78.972
0
LINE
8
1
62
1
10
28.1
20
0
30
-78.972
11
29.3
21
0
31
-82.694
0
LINE
8
1
62
1
10
29.3
20
0
30
-82.694
11
30.3
21
0
31
-81.694
0
LINE
8
1
62
3
10
30.3
20
0
30
-81.694
11
30.3
21
0
31
-2.9
0
LINE
8
1
62
3
10
30.3
20
0
30
-2.9
11
26.9
21
0
31
-2.9
0
LINE
8
1
62
1
10
26.9
20
0
30
-2.9
11
26.9
21
0
31
-75.25
0
LINE
8
1
62
1
10
26.9
20
0
30
-75.25
11
28.1
21
0
31
-78.972
0
LINE
8
1
62
1
10
28.1
20
0
30
-78.972
11
29.1
21
0
31
-77.972
0
LINE
8
1
62
3
10
29.1
20
0
30
-77.972
11
29.1
21
0
31
-2.9
0
LINE
8
1
62
3
10
29.1
20
0
30
-2.9
11
25.7
21
0
31
-2.9
0
LINE
8
1
62
1
10
25.7
20
0
30
-2.9
11
25.7
21
0
31
-71.528
0
LINE
8
1
62
1
10
25.7
20
0
30
-71.528
11
26.9
21
0
31
-75.25
0
LINE
8
1
62
1
10
26.9
20
0
30
-75.25
11
27.9
21
0
31
-74.25
0
LINE
8
1
62
3
10
27.9
20
0
30
-74.25
11
27.9
21
0
31
-2.9
0
LINE
8
1
62
3
10
27.9
20
0
30
-2.9
11
24.5
21
0
31
-2.9
0
LINE
8
1
62
1
10
24.5
20
0
30
-2.9
11
24.5
21
0
31
-67.806
0
LINE
8
1
62
1
10
24.5
20
0
30
-67.806
11
25.7
21
0
31
-71.528
0
LINE
8
1
62
1
10
25.7
20
0
30
-71.528
11
26.7
21
0
31
-70.528
0
LINE
8
1
62
3
10
26.7
20
0
30
-70.528
11
26.7
21
0
31
-2.9
0
LINE
8
1
62
3
10
26.7
20
0
30
-2.9
11
23.3
21
0
31
-2.9
0
LINE
8
1
62
1
10
23.3
20
0
30
-2.9
11
23.3
21
0
31
-64.084
0
LINE
8
1
62
1
10
23.3
20
0
30
-64.084
11
24.5
21
0
31
-67.806
0
LINE
8
1
62
1
10
24.5
20
0
30
-67.806
11
25.5
21
0
31
-66.806
0
LINE
8
1
62
3
10
25.5
20
0
30
-66.806
11
25.5
21
0
31
-2.9
0
LINE
8
1
62
3
10
25.5
20
0
30
-2.9
11
22.1
21
0
31
-2.9
0
LINE
8
1
62
1
10
22.1
20
0
30
-2.9
11
22.1
21
0
31
-60.362
0
LINE
8
1
62
1
10
22.1
20
0
30
-60.362
11
23.3
21
0
31
-64.084
0
LINE
8
1
62
1
10
23.3
20
0
30
-64.084
11
24.3
21
0
31
-63.084
0
LINE
8
1
62
3
10
24.3
20
0
30
-63.084
11
24.3
21
0
31
-2.9
0
LINE
8
1
62
3
10
24.3
20
0
30
-2.9
11
21.1
21
0
31
-2.9
0
LINE
8
1
62
1
10
21.1
20
0
30
-2.9
11
21.1
21
0
31
-57.26
0
LINE
8
1
62
1
10
21.1
20
0
30
-57.26
11
22.1
21
0
31
-60.362
0
LINE
8
1
62
1
10
22.1
20
0
30
-60.362
11
23.1
21
0
31
-59.362
0
LINE
8
1
62
3
10
23.1
20
0
30
-59.362
11
23.1
21
0
31
-2.9
0
LINE
8
1
62
3
10
23.1
20
0
30
-2.9
11
20.1
21
0
31
-2.9
0
LINE
8
1
62
1
10
20.1
20
0
30
-2.9
11
20.1
21
0
31
-54.159
0
LINE
8
1
62
1
10
20.1
20
0
30
-54.159
11
21.1
21
0
31
-57.26
0
LINE
8
1
62
1
10
21.1
20
0
30
-57.26
11
22.1
21
0
31
-56.26
0
LINE
8
1
62
3
10
22.1
20
0
30
-56.26
11
70.5
21
0
31
-56.26
0
LINE
8
1
62
3
10
70.5
20
0
30
-56.26
11
70.5
21
0
31
10
0
LINE
8
1
62
3
10
70.5
20
0
30
10
11
70.5
21
0
31
10
0
LINE
8
1
62
3
10
70.5
20
0
30
10
11
70.5
21
0
31
-105.5
0
LINE
8
1
62
3
10
70.5
20
0
30
-105.5
11
62.5
21
0
31
-105.5
0
LINE
8
1
62
2
10
62.5
20
0
30
-105.5
11
60.5
21
0
31
-105.5
0
LINE
8
1
62
1
10
60.5
20
0
30
-105.5
11
31.865
21
0
31
-105.5
0
LINE
8
1
62
2
10
31.865
20
0
30
-105.5
11
62.5
21
0
31
-105.5
0
LINE
8
1
62
3
10
62.5
20
0
30
-105.5
11
62.5
21
0
31
-106.5
0
LINE
8
1
62
2
10
62.5
20
0
30
-106.5
11
60.5
21
0
31
-106.5
0
LINE
8
1
62
1
10
60.5
20
0
30
-106.5
11
21
21
0
31
-106.5
0
LINE
8
1
62
2
10
21
20
0
30
-106.5
11
62.232
21
0
31
-106.5
0
LINE
8
1
62
3
10
62.232
20
0
30
-106.5
11
62.5
21
0
31
-106.5
0
LINE
8
1
62
3
10
62.5
20
0
30
-106.5
11
62.5
21
0
31
-107.5
0
LINE
8
1
62
2
10
62.5
20
0
30
-107.5
11
60.5
21
0
31
-107.5
0
LINE
8
1
62
1
10
60.5
20
0
30
-107.5
11
21
21
0
31
-107.5
0
LINE
8
1
62
2
10
21
20
0
30
-107.5
11
31.955
21
0
31
-107.5
0
LINE
8
1
62
2
10
31.955
20
0
30
-107.5
11
32.955
21
0
31
-106.5
0
LINE
8
1
62
2
10
32.955
20
0
30
-106.5
11
62.231
21
0
31
-106.5
0
LINE
8
1
62
3
10
62.231
20
0
30
-106.5
11
62.5
21
0
31
-106.5
0
LINE
8
1
62
3
10
62.5
20
0
30
-106.5
11
62.5
21
0
31
-108.5
0
LINE
8
1
62
2
10
62.5
20
0
30
-108.5
11
60.5
21
0
31
-108.5
0
LINE
8
1
62
1
10
60.5
20
0
30
-108.5
11
21
21
0
31
-108.5
0
LINE
8
1
62
2
10
21
20
0
30
-108.5
11
22
21
0
31
-107.5
0
LINE
8
1
62
2
10
22
20
0
30
-107.5
11
60.5
21
0
31
-107.5
0
LINE
8
1
62
3
10
60.5
20
0
30
-107.5
11
62.5
21
0
31
-107.5
0
LINE
8
1
62
3
10
62.5
20
0
30
-107.5
11
62.5
21
0
31
-109.5
0
LINE
8
1
62
2
10
62.5
20
0
30
-109.5
11
60.5
21
0
31
-109.5
0
LINE
8
1
62
1
10
60.5
20
0
30
-109.5
11
21
21
0
31
-109.5
0
LINE
8
1
62
2
10
21
20
0
30
-109.5
11
22
21
0
31
-108.5
0
LINE
8
1
62
2
10
22
20
0
30
-108.5
11
60.5
21
0
31
-108.5
0
LINE
8
1
62
3
10
60.5
20
0
30
-108.5
11
62.5
21
0
31
-108.5
0
LINE
8
1
62
3
10
62.5
20
0
30
-108.5
11
62.5
21
0
31
-110.5
0
LINE
8
1
62
2
10
62.5
20
0
30
-110.5
11
60.5
21
0
31
-110.5
0
LINE
8
1
62
1
10
60.5
20
0
30
-110.5
11
21
21
0
31
-110.5
0
LINE
8
1
62
2
10
21
20
0
30
-110.5
11
22
21
0
31
-109.5
0
LINE
8
1
62
2
10
22
20
0
30
-109.5
11
60.5
21
0
31
-109.5
0
LINE
8
1
62
3
10
60.5
20
0
30
-109.5
11
62.5
21
0
31
-109.5
0
LINE
8
1
62
3
10
62.5
20
0
30
-109.5
11
62.5
21
0
31
-111.5
0
LINE
8
1
62
2
10
62.5
20
0
30
-111.5
11
60.5
21
0
31
-111.5
0
LINE
8
1
62
1
10
60.5
20
0
30
-111.5
11
21
21
0
31
-111.5
0
LINE
8
1
62
2
10
21
20
0
30
-111.5
11
22
21
0
31
-110.5
0
LINE
8
1
62
2
10
22
20
0
30
-110.5
11
60.5
21
0
31
-110.5
0
LINE
8
1
62
3
10
60.5
20
0
30
-110.5
11
62.5
21
0
31
-110.5
0
LINE
8
1
62
3
10
62.5
20
0
30
-110.5
11
62.5
21
0
31
-112.5
0
LINE
8
1
62
2
10
62.5
20
0
30
-112.5
11
60.5
21
0
31
-112.5
0
LINE
8
1
62
1
10
60.5
20
0
30
-112.5
11
30.77
21
0
31
-112.5
0
LINE
8
1
62
2
10
30.77
20
0
30
-112.5
11
31.77
21
0
31
-111.5
0
LINE
8
1
62
2
10
31.77
20
0
30
-111.5
11
60.5
21
0
31
-111.5
0
LINE
8
1
62
3
10
60.5
20
0
30
-111.5
11
62.5
21
0
31
-111.5
0
LINE
8
1
62
3
10
62.5
20
0
30
-111.5
11
62.5
21
0
31
-113.5
0
LINE
8
1
62
2
10
62.5
20
0
30
-113.5
11
60.5
21
0
31
-113.5
0
LINE
8
1
62
1
10
60.5
20
0
30
-113.5
11
31.865
21
0
31
-113.5
0
LINE
8
1
62
2
10
31.865
20
0
30
-113.5
11
32.865
21
0
31
-112.5
0
LINE
8
1
62
2
10
32.865
20
0
30
-112.5
11
62.221
21
0
31
-112.5
0
LINE
8
1
62
3
10
62.221
20
0
30
-112.5
11
62.491
21
0
31
-112.5
0
LINE
8
1
62
3
10
62.491
20
0
30
-112.5
11
62.491
21
0
31
-104.086
0
LINE
8
1
62
3
10
62.491
20
0
30
-104.086
11
62.444
21
0
31
-104.086
0
LINE
8
1
62
2
10
62.444
20
0
30
-104.086
11
33.279
21
0
31
-104.086
0
LINE
8
1
62
2
10
33.279
20
0
30
-104.086
11
31.865
21
0
31
-105.5
0
LINE
8
1
62
1
10
31.865
20
0
30
-105.5
11
31.853
21
0
31
-105.59
0
LINE
8
1
62
1
10
31.853
20
0
30
-105.59
11
31.834
21
0
31
-105.678
0
LINE
8
1
62
1
10
31.834
20
0
30
-105.678
11
31.807
21
0
31
-105.764
0
LINE
8
1
62
1
10
31.807
20
0
30
-105.764
11
31.774
21
0
31
-105.848
0
LINE
8
1
62
1
10
31.774
20
0
30
-105.848
11
31.734
21
0
31
-105.929
0
LINE
8
1
62
1
10
31.734
20
0
30
-105.929
11
31.687
21
0
31
-106.007
0
LINE
8
1
62
1
10
31.687
20
0
30
-106.007
11
31.634
21
0
31
-106.08
0
LINE
8
1
62
1
10
31.634
20
0
30
-106.08
11
31.575
21
0
31
-106.149
0
LINE
8
1
62
1
10
31.575
20
0
30
-106.149
11
31.511
21
0
31
-106.212
0
LINE
8
1
62
1
10
31.511
20
0
30
-106.212
11
31.442
21
0
31
-106.271
0
LINE
8
1
62
1
10
31.442
20
0
30
-106.271
11
31.368
21
0
31
-106.323
0
LINE
8
1
62
1
10
31.368
20
0
30
-106.323
11
31.29
21
0
31
-106.369
0
LINE
8
1
62
1
10
31.29
20
0
30
-106.369
11
31.209
21
0
31
-106.408
0
LINE
8
1
62
1
10
31.209
20
0
30
-106.408
11
31.125
21
0
31
-106.441
0
LINE
8
1
62
1
10
31.125
20
0
30
-106.441
11
31.038
21
0
31
-106.467
0
LINE
8
1
62
1
10
31.038
20
0
30
-106.467
11
30.95
21
0
31
-106.485
0
LINE
8
1
62
1
10
30.95
20
0
30
-106.485
11
30.86
21
0
31
-106.496
0
LINE
8
1
62
1
10
30.86
20
0
30
-106.496
11
30.77
21
0
31
-106.5
0
LINE
8
1
62
1
10
30.77
20
0
30
-106.5
11
21
21
0
31
-106.5
0
LINE
8
1
62
1
10
21
20
0
30
-106.5
11
21
21
0
31
-109.5
0
LINE
8
1
62
2
10
21
20
0
30
-109.5
11
23
21
0
31
-109.5
0
LINE
8
1
62
3
10
23
20
0
30
-109.5
11
33.279
21
0
31
-109.5
0
LINE
8
1
62
3
10
33.279
20
0
30
-109.5
11
33.279
21
0
31
-111.087
0
LINE
8
1
62
2
10
33.279
20
0
30
-111.087
11
33.279
21
0
31
-112.086
0
LINE
8
1
62
2
10
33.279
20
0
30
-112.086
11
31.865
21
0
31
-113.5
0
LINE
8
1
62
1
10
31.865
20
0
30
-113.5
11
31.853
21
0
31
-113.41
0
LINE
8
1
62
1
10
31.853
20
0
30
-113.41
11
31.834
21
0
31
-113.322
0
LINE
8
1
62
1
10
31.834
20
0
30
-113.322
11
31.807
21
0
31
-113.236
0
LINE
8
1
62
1
10
31.807
20
0
30
-113.236
11
31.774
21
0
31
-113.152
0
LINE
8
1
62
1
10
31.774
20
0
30
-113.152
11
31.734
21
0
31
-113.071
0
LINE
8
1
62
1
10
31.734
20
0
30
-113.071
11
31.687
21
0
31
-112.993
0
LINE
8
1
62
1
10
31.687
20
0
30
-112.993
11
31.634
21
0
31
-112.92
0
LINE
8
1
62
1
10
31.634
20
0
30
-112.92
11
31.575
21
0
31
-112.851
0
LINE
8
1
62
1
10
31.575
20
0
30
-112.851
11
31.511
21
0
31
-112.788
0
LINE
8
1
62
1
10
31.511
20
0
30
-112.788
11
31.442
21
0
31
-112.729
0
LINE
8
1
62
1
10
31.442
20
0
30
-112.729
11
31.368
21
0
31
-112.677
0
LINE
8
1
62
1
10
31.368
20
0
30
-112.677
11
31.29
21
0
31
-112.631
0
LINE
8
1
62
1
10
31.29
20
0
30
-112.631
11
31.209
21
0
31
-112.592
0
LINE
8
1
62
1
10
31.209
20
0
30
-112.592
11
31.125
21
0
31
-112.559
0
LINE
8
1
62
1
10
31.125
20
0
30
-112.559
11
31.038
21
0
31
-112.533
0
LINE
8
1
62
1
10
31.038
20
0
30
-112.533
11
30.95
21
0
31
-112.515
0
LINE
8
1
62
1
10
30.95
20
0
30
-112.515
11
30.86
21
0
31
-112.504
0
LINE
8
1
62
1
10
30.86
20
0
30
-112.504
11
30.77
21
0
31
-112.5
0
LINE
8
1
62
1
10
30.77
20
0
30
-112.5
11
21
21
0
31
-112.5
0
LINE
8
1
62
1
10
21
20
0
30
-112.5
11
21
21
0
31
-109.5
0
LINE
8
1
62
2
10
21
20
0
30
-109.5
11
23
21
0
31
-109.5
0
LINE
8
1
62
3
10
23
20
0
30
-109.5
11
32.77
21
0
31
-109.5
0
LINE
8
1
62
3
10
32.77
20
0
30
-109.5
11
32.77
21
0
31
-107.767
0
LINE
8
1
62
2
10
32.77
20
0
30
-107.767
11
32.77
21
0
31
-105.5
0
LINE
8
1
62
2
10
32.77
20
0
30
-105.5
11
30.77
21
0
31
-105.5
0
LINE
8
1
62
1
10
30.77
20
0
30
-105.5
11
20
21
0
31
-105.5
0
LINE
8
1
62
1
10
20
20
0
30
-105.5
11
20
21
0
31
-113.5
0
LINE
8
1
62
1
10
20
20
0
30
-113.5
11
19.9
21
0
31
-113.5
0
LINE
8
1
62
2
10
19.9
20
0
30
-113.5
11
32.601
21
0
31
-113.5
0
LINE
8
1
62
3
10
32.601
20
0
30
-113.5
11
70.5
21
0
31
-113.5
0
LINE
8
1
62
3
10
70.5
20
0
30
-113.5
11
70.5
21
0
31
10
0
LINE
8
1
62
3
10
70.5
20
0
30
10
11
70.5
21
0
31
10
0
LINE
8
1
62
3
10
70.5
20
0
30
10
11
70.5
21
0
31
-3.5
0
LINE
8
1
62
3
10
70.5
20
0
30
-3.5
11
19.8
21
0
31
-3.5
0
LINE
8
1
62
1
10
19.8
20
0
30
-3.5
11
19.8
21
0
31
-53.3
0
LINE
8
1
62
1
10
19.8
20
0
30
-53.3
11
20
21
0
31
-53.5
0
LINE
8
1
62
3
10
20
20
0
30
-53.5
11
70.5
21
0
31
-53.5
0
LINE
8
1
62
3
10
70.5
20
0
30
-53.5
11
70.5
21
0
31
-3.5
0
LINE
8
1
62
3
10
70.5
20
0
30
-3.5
11
19.6
21
0
31
-3.5
0
LINE
8
1
62
1
10
19.6
20
0
30
-3.5
11
19.6
21
0
31
-53.1
0
LINE
8
1
62
1
10
19.6
20
0
30
-53.1
11
20
21
0
31
-53.5
0
LINE
8
1
62
3
10
20
20
0
30
-53.5
11
70.5
21
0
31
-53.5
0
LINE
8
1
62
3
10
70.5
20
0
30
-53.5
11
70.5
21
0
31
-3.5
0
LINE
8
1
62
3
10
70.5
20
0
30
-3.5
11
19.4
21
0
31
-3.5
0
LINE
8
1
62
1
10
19.4
20
0
30
-3.5
11
19.4
21
0
31
-52.9
0
LINE
8
1
62
1
10
19.4
20
0
30
-52.9
11
20
21
0
31
-53.5
0
LINE
8
1
62
3
10
20
20
0
30
-53.5
11
70.5
21
0
31
-53.5
0
LINE
8
1
62
3
10
70.5
20
0
30
-53.5
11
70.5
21
0
31
-3.5
0
LINE
8
1
62
3
10
70.5
20
0
30
-3.5
11
19.2
21
0
31
-3.5
0
LINE
8
1
62
1
10
19.2
20
0
30
-3.5
11
19.2
21
0
31
-52.7
0
LINE
8
1
62
1
10
19.2
20
0
30
-52.7
11
20
21
0
31
-53.5
0
LINE
8
1
62
3
10
20
20
0
30
-53.5
11
70.5
21
0
31
-53.5
0
LINE
8
1
62
3
10
70.5
20
0
30
-53.5
11
70.5
21
0
31
-3.5
0
LINE
8
1
62
3
10
70.5
20
0
30
-3.5
11
19
21
0
31
-3.5
0
LINE
8
1
62
1
10
19
20
0
30
-3.5
11
19
21
0
31
-52.5
0
LINE
8
1
62
1
10
19
20
0
30
-52.5
11
20
21
0
31
-53.5
0
LINE
8
1
62
3
10
20
20
0
30
-53.5
11
70.5
21
0
31
-53.5
0
LINE
8
1
62
3
10
70.5
20
0
30
-53.5
11
70.5
21
0
31
10
0
LINE
8
1
62
3
10
70.5
20
0
30
10
11
70.5
21
0
31
10
0
LINE
8
1
62
3
10
70.5
20
0
30
10
11
70.5
21
0
31
-2.286
0
LINE
8
1
62
3
10
70.5
20
0
30
-2.286
11
21.485
21
0
31
-2.286
0
LINE
8
1
62
2
10
21.485
20
0
30
-2.286
11
21.414
21
0
31
-2.286
0
LINE
8
1
62
2
10
21.414
20
0
30
-2.286
11
20
21
0
31
-3.7
0
LINE
8
1
62
1
10
20
20
0
30
-3.7
11
20
21
0
31
-53.669
0
LINE
8
1
62
1
10
20
20
0
30
-53.669
11
30.87
21
0
31
-87.383
0
LINE
8
1
62
1
10
30.87
20
0
30
-87.383
11
30.87
21
0
31
-103.793
0
LINE
8
1
62
1
10
30.87
20
0
30
-103.793
11
20
21
0
31
-112.914
0
LINE
8
1
62
1
10
20
20
0
30
-112.914
11
20
21
0
31
-113.5
0
LINE
8
1
62
1
10
20
20
0
30
-113.5
11
30.87
21
0
31
-113.5
0
LINE
8
1
62
1
10
30.87
20
0
30
-113.5
11
30.87
21
0
31
-154.686
0
LINE
8
1
62
1
10
30.87
20
0
30
-154.686
11
40
21
0
31
-163.616
0
LINE
8
1
62
1
10
40
20
0
30
-163.616
11
40
21
0
31
-203.616
0
LINE
8
1
62
1
10
40
20
0
30
-203.616
11
60.45
21
0
31
-223.616
0
LINE
8
1
62
1
10
60.45
20
0
30
-223.616
11
60.45
21
0
31
-293.7
0
LINE
8
1
62
2
10
60.45
20
0
30
-293.7
11
61.864
21
0
31
-295.114
0
LINE
8
1
62
2
10
61.864
20
0
30
-295.114
11
61.935
21
0
31
-295.114
0
LINE
8
1
62
3
10
61.935
20
0
30
-295.114
11
70.5
21
0
31
-295.114
0
LINE
8
1
62
3
10
70.5
20
0
30
-295.114
11
70.5
21
0
31
10
0
ENDSEC
0
EOF
